PathFileType	4	(X/Y/Z)	C:/Users/opensim2020/Desktop/walking_exp_matlab/subject01_walking08_straight_03.trc																																																																																																																															
DataRate	CameraRate	NumFrames	NumMarkers	Units	OrigDataRate	OrigDataStartFrame	OrigNumFrames																																																																																																																											
100	100	8	43	mm	100	2710	326																																																																																																																											
Frame#	Time	LFHD			RFHD			LBHD			RBHD			C7			T10			CLAV			STRN			RBAK			LSHO			LUPA			LELB			LFRM			LWRA			LWRB			LFIN			RSHO			RUPA			RELB			RFRM			RWRA			RWRB			RFIN			LASI			RASI			LPSI			RPSI			LTHI			LKNE			LTIB			LANK			LHEE			LTOE			RTHI			RKNE			RTIB			RANK			RHEE			RTOE			*39			*40			*41			*42		
		X1	Y1	Z1	X2	Y2	Z2	X3	Y3	Z3	X4	Y4	Z4	X5	Y5	Z5	X6	Y6	Z6	X7	Y7	Z7	X8	Y8	Z8	X9	Y9	Z9	X10	Y10	Z10	X11	Y11	Z11	X12	Y12	Z12	X13	Y13	Z13	X14	Y14	Z14	X15	Y15	Z15	X16	Y16	Z16	X17	Y17	Z17	X18	Y18	Z18	X19	Y19	Z19	X20	Y20	Z20	X21	Y21	Z21	X22	Y22	Z22	X23	Y23	Z23	X24	Y24	Z24	X25	Y25	Z25	X26	Y26	Z26	X27	Y27	Z27	X28	Y28	Z28	X29	Y29	Z29	X30	Y30	Z30	X31	Y31	Z31	X32	Y32	Z32	X33	Y33	Z33	X34	Y34	Z34	X35	Y35	Z35	X36	Y36	Z36	X37	Y37	Z37	X38	Y38	Z38	X39	Y39	Z39	X40	Y40	Z40	X41	Y41	Z41	X42	Y42	Z42	X43	Y43	Z43
																																																																																																																																		
1	0	-956.91876	1673.60498	-1061.78101	-941.1864	1689.43298	-949.49109	-1054.04138	1596.04651	-1046.18604	-1041.07336	1610.52161	-927.05145	-1052.13879	1433.44897	-990.41168	-1093.51208	1142.48157	-968.96051	-908.77942	1363.9801	-999.21924	-870.04883	1206.03662	-1004.22919	-1102.37366	1242.98303	-902.58917	-979.7915	1388.45801	-1155.02063	-998.42816	1202.53223	-1237.80127	-988.2879	1050.82703	-1240.65015	-922.90344	956.03314	-1264.078	-815.78717	867.87042	-1244.5415	-866.87042	847.60559	-1268.86304	-801.94037	794.43365	-1278.87	-957.24841	1393.44189	-843.30029	-1008.65546	1195.63281	-734.89392	-1013.85175	1070.35681	-733.49066	-986.29681	952.09344	-707.14508	-910.28162	834.12445	-736.01031	-950.00836	835.16705	-692.64093	-913.70648	757.35425	-699.19159	-937.76343	928.26855	-1083.95764	-917.9826	936.79535	-869.2016	-1118.55603	946.96313	-1012.22491	-1101.12524	949.67853	-867.03064	-969.26941	597.95746	-1131.81543	-970.76862	464.96857	-1113.70496	-1023.75818	281.02231	-1115.22925	-1047.95532	64.83881	-1059.99609	-1086.22632	34.68738	-1001.62506	-903.95013	30.55775	-1088.33081	-879.84662	615.47485	-802.66174	-834.15253	462.61508	-832.20081	-910.71667	303.18906	-826.17841	-970.5011	106.87239	-874.86749	-1020.71698	72.18706	-929.20709	-843.74902	48.96968	-867.02179	-964.78723	1715.92639	-972.81879	1973.18567	1023.45105	-3101.95044	2012.5686	1022.13428	-3140.66064	NaN	NaN	NaN
2	0.01	-951.17493	1673.64014	-1062.02356	-935.93817	1689.31726	-949.94714	-1048.41846	1596.13257	-1046.80823	-1035.58325	1610.41016	-927.63214	-1046.67871	1433.52161	-991.39026	-1088.47034	1142.57593	-970.0799	-903.51978	1363.69067	-999.45612	-864.86652	1205.73804	-1004.9295	-1097.4436	1243.01636	-903.87762	-973.85004	1388.53357	-1155.86304	-992.11932	1202.80212	-1238.92383	-981.66913	1050.99695	-1241.8512	-914.88733	956.94312	-1264.93408	-806.61462	870.3288	-1245.07544	-857.37109	849.35132	-1269.40613	-791.75421	797.03076	-1279.14868	-951.9751	1393.27979	-843.92389	-1004.70435	1195.5282	-735.98108	-1010.21844	1070.32654	-734.49304	-982.9917	951.97852	-707.95636	-907.05902	833.90411	-736.35272	-946.98999	835.02802	-693.17102	-910.73035	757.34277	-699.32697	-933.27869	927.88409	-1084.8512	-913.26349	936.79675	-870.02576	-1114.01941	946.98901	-1012.91907	-1097.00562	950.08917	-867.75409	-966.67078	597.54773	-1132.33215	-968.9859	464.57233	-1114.18628	-1022.82361	280.92361	-1115.29907	-1047.81543	64.82063	-1059.92529	-1086.20593	34.65331	-1001.55438	-903.8938	30.47952	-1088.35657	-874.85083	615.72784	-803.00671	-828.427	462.91614	-833.43347	-898.68115	301.38284	-827.35211	-950.17883	102.71252	-876.41193	-1000.34912	67.53929	-930.30371	-821.16595	48.98285	-868.55359	-958.98871	1715.80383	-973.03937	1973.10242	1023.70337	-3101.95166	2012.59045	1022.02155	-3140.67627	NaN	NaN	NaN
3	0.02	-945.36328	1673.59546	-1062.22803	-930.43762	1689.16821	-949.99915	-1042.74512	1596.12793	-1047.29675	-1030.08948	1610.18469	-928.08557	-1041.13708	1433.48645	-992.26587	-1083.43848	1142.61719	-971.04803	-897.99799	1363.51025	-1000.3407	-859.73267	1205.39124	-1005.51276	-1092.40173	1242.96912	-905.04083	-967.69281	1388.56396	-1156.60645	-985.82617	1202.98914	-1239.6991	-974.99445	1051.07324	-1242.88647	-907.02838	957.91638	-1265.67639	-797.54248	872.76941	-1245.47485	-847.92371	850.95227	-1269.87305	-781.45966	799.61316	-1279.49524	-946.92987	1393.04858	-844.64832	-1000.73364	1195.37341	-737.00665	-1006.50903	1070.19666	-735.47253	-979.61475	951.78094	-708.71576	-903.74377	833.651	-736.63409	-943.9137	834.8316	-693.56201	-907.61725	757.28424	-699.4278	-928.82111	927.46423	-1085.67883	-908.36414	936.7561	-870.7782	-1109.36304	946.87616	-1013.60675	-1091.63428	949.56812	-868.60718	-964.09509	597.17139	-1132.86597	-967.18195	464.16208	-1114.55676	-1022.01886	280.80664	-1115.28894	-1047.77417	64.90284	-1059.79895	-1086.2113	34.67896	-1001.46106	-903.92358	30.41134	-1088.33752	-870.64386	615.83167	-803.3667	-822.42603	463.78949	-833.90875	-887.86841	299.96173	-828.18463	-929.75897	98.71549	-877.67657	-977.91321	62.00662	-931.52167	-798.84406	49.51709	-869.57751	-953.57324	1715.94946	-973.11316	1973.17993	1023.31531	-3101.91187	2012.56348	1022.10449	-3140.67871	NaN	NaN	NaN
4	0.03	-939.60962	1673.47107	-1062.38171	-924.83008	1688.85962	-950.15546	-1037.05579	1596.07373	-1047.75293	-1024.58801	1609.91528	-928.46271	-1035.47522	1433.26025	-993.14777	-1078.33777	1142.64221	-971.81201	-892.64294	1363.20508	-1000.69421	-854.49255	1205.05115	-1006.11163	-1087.34961	1242.9021	-906.05811	-961.67694	1388.48865	-1157.0625	-979.38007	1203.15295	-1240.69397	-968.29254	1051.0769	-1243.87683	-899.08282	958.57056	-1266.36584	-788.52399	875.09229	-1245.81519	-838.59705	852.57538	-1270.23254	-771.34656	802.12292	-1279.76587	-941.85803	1392.72144	-845.13086	-996.73425	1195.18579	-737.95038	-1002.6955	1070.02686	-736.33289	-976.1377	951.66693	-709.28802	-900.25806	833.33405	-736.83063	-940.7345	834.66589	-694.013	-904.35175	757.05811	-699.47711	-924.22699	927.05969	-1086.51672	-903.29968	936.63586	-871.52252	-1104.71167	946.61493	-1014.17493	-1086.70496	949.51758	-869.20728	-961.39124	596.79651	-1133.2771	-965.18811	463.74756	-1114.93982	-1021.22791	280.73083	-1115.37524	-1047.77087	64.72509	-1059.5293	-1086.03369	34.64991	-1001.4317	-903.85278	30.33305	-1088.41785	-865.22137	615.58887	-803.41284	-816.901	464.28906	-834.63672	-876.87152	298.51694	-828.96014	-909.86737	95.63094	-878.3645	-955.69794	56.63852	-932.92987	-776.60602	50.25883	-870.48315	-947.87543	1715.67615	-973.25806	1973.12952	1023.45221	-3101.7688	2012.51123	1022.01752	-3140.61597	NaN	NaN	NaN
5	0.04	-933.75897	1673.33179	-1062.41736	-919.21429	1688.4093	-950.30249	-1031.39099	1595.98096	-1048.06873	-1019.01086	1609.61292	-928.7829	-1029.98853	1433.26672	-993.83252	-1073.12976	1142.51965	-972.58337	-887.18524	1362.89355	-1001.14655	-849.23529	1204.66724	-1006.66669	-1082.21777	1242.78955	-906.94061	-955.758	1388.50195	-1157.74475	-972.89972	1203.23669	-1241.32507	-961.56317	1051.10596	-1244.7644	-891.27325	959.39465	-1266.90857	-779.61078	877.37158	-1245.99536	-829.29596	854.01526	-1270.34912	-761.42889	804.61664	-1279.76648	-937.05017	1392.39563	-845.56012	-992.71661	1194.96655	-738.87524	-998.79944	1069.81018	-737.15137	-972.53271	951.39221	-709.86908	-896.71808	832.96765	-736.92767	-937.10431	834.42102	-694.32892	-901.05164	756.77515	-699.53961	-919.46649	926.68884	-1087.2948	-898.10767	936.4552	-872.23279	-1099.73657	946.64844	-1014.54346	-1081.62012	949.30408	-869.79584	-958.5094	596.40393	-1133.65735	-963.07971	463.30188	-1115.22583	-1020.30627	280.69858	-1115.53882	-1047.54871	64.82882	-1059.43579	-1086.03674	34.86352	-1001.36731	-903.53864	30.22179	-1088.46045	-860.82135	615.45605	-803.63055	-811.61798	464.60211	-835.29779	-866.26947	297.09488	-829.74646	-889.47186	92.25569	-879.22852	-934.01031	52.18011	-933.85248	-754.85236	51.45618	-870.82574	-942.22559	1715.41211	-973.26587	1973.12476	1023.46368	-3101.87256	2012.55139	1022.04871	-3140.72314	NaN	NaN	NaN
6	0.05	-927.91864	1673.15515	-1062.3844	-913.51501	1688.15063	-950.15869	-1025.59045	1595.8457	-1048.35181	-1013.36108	1609.276	-929.03558	-1024.35352	1433.02771	-994.47778	-1067.85388	1142.43005	-973.10992	-881.62018	1362.53943	-1001.56732	-843.89117	1204.2832	-1007.22803	-1077.02307	1242.65149	-907.70807	-949.83203	1388.3844	-1158.22119	-966.35602	1203.302	-1242.19507	-954.7627	1051.11462	-1245.53943	-883.40033	960.01935	-1267.37769	-770.80469	879.50043	-1246.02783	-820.14587	855.42737	-1270.47961	-751.73407	806.69556	-1279.59119	-931.51788	1392.09155	-846.112	-988.65808	1194.70752	-739.67737	-994.8996	1069.59961	-737.80261	-968.80402	951.10541	-710.46509	-892.97791	832.60034	-737.05121	-933.68701	834.09894	-694.56006	-897.64752	756.49707	-699.53625	-914.6839	926.25995	-1087.99573	-892.76355	936.21106	-872.92578	-1094.78223	946.52899	-1014.89246	-1076.38794	949.09064	-870.27094	-955.44519	596.01123	-1134.03198	-961.08459	462.94958	-1115.46997	-1019.2428	280.64975	-1115.73376	-1047.36401	64.84411	-1059.37744	-1085.95337	34.99218	-1001.30133	-903.25995	30.02924	-1088.45093	-857.08563	614.93744	-804.1369	-806.62134	464.69763	-835.96472	-855.45844	295.56863	-830.41559	-869.7514	89.81146	-879.67206	-912.3222	48.23383	-934.44659	-733.51544	53.08474	-871.13873	-936.57855	1715.16113	-973.15283	1973.13232	1023.52386	-3101.98901	2012.46228	1022.03473	-3140.73267	NaN	NaN	NaN
7	0.06	-922.06683	1672.98718	-1062.23035	-907.86816	1687.70471	-950.07166	-1019.82611	1595.70471	-1048.53027	-1007.80359	1608.89526	-929.1084	-1018.71295	1432.83704	-994.93591	-1062.51904	1142.26367	-973.59473	-876.2146	1362.15771	-1001.38733	-838.60297	1203.8479	-1007.65741	-1071.73926	1242.36487	-908.42188	-943.74432	1388.00476	-1158.35071	-959.8078	1203.28748	-1242.65869	-947.98047	1051.07544	-1246.24304	-875.53973	960.61499	-1267.729	-762.04895	881.55103	-1245.98083	-811.06689	856.79266	-1270.46448	-742.08307	809.09076	-1279.38965	-926.79297	1391.59314	-846.29303	-984.41901	1194.41382	-740.3382	-990.65021	1069.32593	-738.51398	-964.97241	950.82275	-710.7915	-889.19922	832.12396	-737.05188	-930.28082	833.76453	-694.73383	-894.37494	756.14044	-699.59424	-909.78638	925.92529	-1088.75281	-887.35022	935.90741	-873.64557	-1089.60864	946.3244	-1015.20551	-1071.0083	948.87842	-870.62048	-952.21417	595.65027	-1134.35706	-959.1474	462.53088	-1115.75806	-1018.02234	280.49268	-1115.82434	-1047.21765	64.90437	-1059.3335	-1085.91199	35.09226	-1001.23462	-903.15411	29.72842	-1088.20801	-852.00305	614.12885	-804.22729	-801.573	464.65396	-836.60156	-844.71948	294.20221	-831.07129	-850.33923	87.89222	-880.04871	-891.40082	44.7418	-934.88843	-712.65125	55.55116	-871.12183	-930.91382	1714.77197	-972.9801	1973.02893	1023.54816	-3101.94312	2012.51062	1022.00885	-3140.69531	NaN	NaN	NaN
8	0.07	-916.10223	1672.77063	-1061.99841	-902.26056	1687.29993	-949.70886	-1014.34961	1595.61743	-1048.66663	-1002.1748	1608.4917	-929.14221	-1013.30005	1432.65515	-995.37738	-1056.99634	1141.96826	-973.96283	-870.61169	1361.77161	-1001.9679	-833.28278	1203.48328	-1008.05975	-1066.40503	1242.01123	-909.03192	-937.9411	1387.96289	-1158.6853	-953.20313	1203.30151	-1243.23438	-941.07794	1051.01282	-1246.87402	-867.68481	961.19049	-1268.00696	-753.388	883.47034	-1245.80359	-802.04376	858.12469	-1270.37708	-732.45221	811.28705	-1279.23633	-921.35339	1391.35913	-846.52625	-980.09985	1194.07666	-740.94507	-986.36841	1068.97766	-739.09216	-961.00525	950.42383	-711.26715	-885.33624	831.56244	-736.92145	-926.52448	833.41364	-694.86255	-890.67688	755.51678	-699.45959	-904.74707	925.63458	-1089.48499	-881.62616	935.53619	-874.26166	-1084.35278	946.15869	-1015.42853	-1065.45129	948.71631	-870.98724	-948.88385	595.29083	-1134.73499	-957.26801	462.13904	-1116.07263	-1016.76904	280.3696	-1115.95679	-1047.10474	64.92963	-1059.28369	-1085.88794	35.22399	-1001.19073	-903.11188	29.93009	-1088.39636	-847.91827	613.50067	-804.56036	-796.69769	464.4563	-837.21667	-833.11206	292.66379	-831.30322	-830.9696	86.07626	-880.14288	-870.32666	41.21031	-935.11481	-692.39178	58.81173	-871.10706	-925.18134	1714.39294	-972.6994	1973.12817	1023.4129	-3101.88477	2012.50513	1022.10938	-3140.74878	NaN	NaN	NaN
